<?xml version="1.0" encoding="utf-8"?>
<!-- Svg Vector Icons : http://www.onlinewebfonts.com/icon -->
<!DOCTYPE svg PUBLIC "-//W3C//DTD SVG 1.1//EN" "http://www.w3.org/Graphics/SVG/1.1/DTD/svg11.dtd">
<svg version="1.1" xmlns="http://www.w3.org/2000/svg" xmlns:xlink="http://www.w3.org/1999/xlink" x="0px" y="0px" viewBox="0 0 1000 1000" enable-background="new 0 0 1000 1000" xml:space="preserve">
<metadata> Svg Vector Icons : http://www.onlinewebfonts.com/icon </metadata>
<g><path d="M950.5,742.8c-113.5-0.5-227.1-0.3-340.6-0.3h-18c1.6,23.1,3.7,45.2,4.6,67.4c1.2,28.6,14.6,48.6,39.5,61.9c10.1,5.4,19.8,11.6,29.5,17.7c2.9,1.8,6,3.9,8,6.6c5.5,7.6,1.9,14.6-7.6,14.8c-14.7,0.3-29.3,0.1-44,0.1c-94.4,0-188.8,0-283.2-0.1c-5.5,0-12.5,1.7-14.4-5.8c-1.8-7.3,3.2-11.8,9-15.2c12.6-7.5,25.2-15,37.7-22.6c19.3-11.8,29.9-29,31.6-51.6c1.8-23.8,3.6-47.7,5.5-73.1h-12.4c-116.4,0-232.8,0-349.2,0c-25.4,0-36.6-11.2-36.6-36.8c0-180.2,0-401.2,0-581.4c0-23,11.8-35.1,34.5-35.1c302,0,604,0.1,906-0.3c18.8,0,32,5.8,39.5,23.2v607.4C982.5,736.9,969.3,742.9,950.5,742.8z M943.4,156.3H56.5v514.3h886.9V156.3z M117.2,520.2c0-11.4,0.1-22.9,0-34.4c-0.1-8.6,3.7-13.2,12.5-13.2c13,0,26.1,0.1,39.1,0c8.8-0.1,12.8,4.6,12.9,13c0.1,23.5,0.1,47.1,0,70.6c0,8.5-4.2,12.9-13,12.8c-12.7-0.1-25.5,0.1-38.2-0.1c-9.5-0.1-13.1-3.9-13.2-13.5C117.1,543.7,117.2,531.9,117.2,520.2L117.2,520.2z M302.9,503.9c0-16.6-0.1-33.1,0-49.7c0.1-10.2,3.5-13.6,13.8-13.7c12.4-0.1,24.8-0.1,37.3,0c9.6,0.1,13.4,3.6,13.4,13.3c0.2,34.1,0.1,68.1,0,102.2c0,8.4-4.2,13-13,12.9c-12.7-0.1-25.5,0.1-38.2-0.1c-9.5-0.1-13.2-3.9-13.3-13.4C302.8,538.3,302.9,521.1,302.9,503.9z M274.3,488.5c0,22,0.1,44,0,65.9c0,11.1-3.2,14.3-14.1,14.5c-12.1,0.1-24.2,0.1-36.3,0c-9.9-0.1-13.6-3.3-13.7-12.9c-0.2-44.9-0.2-89.8,0-134.8c0-9.7,3.7-12.9,13.6-13c12.4-0.1,24.9-0.1,37.3,0c9.6,0.1,13.1,3.7,13.1,13.4C274.4,443.9,274.3,466.2,274.3,488.5z M847.3,313.1c-40.2,30.1-79.9,59.9-120.8,90.5V248.5C763.1,244.9,825.9,278.2,847.3,313.1z M395.9,473.3c0-27.1,0-54.2,0-81.3c0-13.2,3.1-16.1,16.4-16.2c11.2,0,22.3-0.1,33.5,0c10.3,0.1,14.1,3.6,14.1,13.5c0.1,55.5,0.1,110.9,0,166.4c0,9.5-3.8,13-13.5,13.2c-12.4,0.2-24.9,0.1-37.3,0c-9.5-0.1-13.1-3.6-13.2-13.4C395.9,528.1,396,500.7,395.9,473.3L395.9,473.3z M334.4,371.8c29.9-34,59.5-67.6,90.8-103.1c-13.8,0-25.1-0.2-36.4,0.1c-7.6,0.2-13.5-1.9-14.2-10.5c-0.6-6.9,5-10.9,14.7-10.9c18.8,0,37.6-0.1,56.4,0c11,0.1,14.3,3.2,14.3,14.2c0.1,19.4-0.1,38.9,0.1,58.3c0.1,7.5-2.9,13-10.6,13c-7.7,0-10.9-5.3-10.8-12.9c0.1-10.4,0-20.8,0-33.8c-4.6,5-7.8,8.3-10.8,11.8c-27,30.6-53.9,61.3-80.9,91.8c-8.5,9.6-12.2,9.9-22.4,1.8c-27.2-21.6-54.3-43.3-82-65.5c-2.6,2.3-5.2,4.4-7.7,6.8c-31.1,29.3-62.2,58.5-93.3,87.8c-2.3,2.2-4.5,4.5-7.1,6.4c-5.1,3.7-11.2,3.8-14.2-1.5c-2-3.5-1-9.2-0.1-13.7c0.5-2.3,3.8-4.1,5.9-6.1c34.8-32.8,69.6-65.6,104.4-98.3c9.3-8.7,12.1-8.8,22-0.9c24.4,19.5,48.8,39,73.2,58.5C328.5,367.3,331.3,369.4,334.4,371.8z M814.3,549c-26.7-41.4-53.4-82.8-80.5-124.7c42.1-31.5,83.5-62.5,125-93.6C901,393.8,888,497.5,814.3,549z M704.8,260.3c0,31,0,61.2,0,91.5c0,19.1-0.3,38.3,0.2,57.4c0.1,4.8,1.5,10.1,4.1,14.1c23.7,37.4,47.9,74.5,71.8,111.7c2.9,4.5,5.8,9,8.7,13.5c-42.6,27.1-111.8,30.2-165.4-8.6c-54.5-39.4-77.6-108.7-57.4-172.2C586.2,306.4,644,261.1,704.8,260.3z"/></g>
</svg>