<svg xmlns="http://www.w3.org/2000/svg" width="40" height="40" viewBox="0 0 40 40">
    <g fill="none" fill-rule="evenodd">
        <path fill="#0D557D" d="M20 40c11.046 0 20-8.954 20-20S31.046 0 20 0 0 8.954 0 20s8.954 20 20 20zm0-2c9.941 0 18-8.059 18-18S29.941 2 20 2 2 10.059 2 20s8.059 18 18 18z"/>
        <path fill="#FFF" d="M22.857 29.586C26.987 28.356 30 24.53 30 20c0-5.523-4.477-10-10-10s-10 4.477-10 10c0 4.53 3.012 8.357 7.143 9.586v1.843h5.714v-1.843zm0-6.392a4.286 4.286 0 1 0-5.714 0v-2.051h5.714v2.051z"/>
    </g>
</svg>
