<svg xmlns="http://www.w3.org/2000/svg" width="22" height="26" viewBox="0 0 22 26">
    <g fill="#FFF" fill-rule="nonzero">
        <path d="M18.295 26c-.206-2.167-.559-3.751-.951-4.878-.13-.37-.261-.688-.391-.965V26h-11.9v-5.854C4.52 21.273 3.983 23.12 3.709 26H.174c.242-2.831.721-4.947 1.34-6.567.892-2.358 2.168-3.69 3.351-4.297a4.28 4.28 0 0 1 1.354-.449c.168-.057.347-.09.533-.09h1.89c-.295 1.748-1.027 6.936.508 7.964.256.17.474.316.669.44l.524-5.43c.216.06.437.092.66.092h.001c.222 0 .443-.032.659-.093l.523 5.43c.195-.123.413-.268.669-.44 1.536-1.027.803-6.215.507-7.963h1.89c.187 0 .366.033.534.09.374.056.842.181 1.352.448.782.405 1.627 1.134 2.35 2.27 1.104 1.75 1.983 4.384 2.342 8.595h-3.535z"/>
        <path d="M11.619 14.717h-1.232l-.308 1.71.174.387c.238.108.493.164.75.165.256 0 .511-.057.75-.166l.174-.386-.308-1.71zM11.805 13.23c2.352-.398 4.147-2.513 4.147-5.064 0-.642-.114-1.255-.322-1.822a.732.732 0 0 0 .207-.399c.576.021 1.019-.075 1.215-.395.656-1.073-1.027-5.55-6.05-5.55S4.297 4.477 4.953 5.55c.196.32.639.416 1.215.395a.732.732 0 0 0 .207.4 5.282 5.282 0 0 0-.323 1.821c0 2.551 1.796 4.666 4.148 5.063a4.826 4.826 0 0 0 1.605 0zm-.803-9.711c2.673 0 4.84.715 4.84 1.596 0 .131-.048.259-.139.38-.517-.698-2.425-1.216-4.7-1.216-2.276 0-4.184.518-4.701 1.217a.636.636 0 0 1-.14-.38c0-.882 2.167-1.597 4.84-1.597z"/>
    </g>
</svg>
