<svg xmlns="http://www.w3.org/2000/svg" width="20" height="13" viewBox="0 0 20 13">
    <path fill="#4990E2" fill-rule="evenodd" d="M1.875 5H.625a.6.6 0 0 0-.44.186.6.6 0 0 0-.185.439v1.25a.6.6 0 0 0 .186.44.6.6 0 0 0 .439.185h1.25a.6.6 0 0 0 .44-.186.6.6 0 0 0 .185-.439v-1.25a.6.6 0 0 0-.186-.44A.6.6 0 0 0 1.875 5zm17.5.625H6.25a.6.6 0 0 0-.44.186.6.6 0 0 0-.185.439.6.6 0 0 0 .186.44.6.6 0 0 0 .439.185h13.125a.6.6 0 0 0 .44-.186A.6.6 0 0 0 20 6.25a.6.6 0 0 0-.186-.44.6.6 0 0 0-.439-.185zM1.875 10H.625a.6.6 0 0 0-.44.186.6.6 0 0 0-.185.439v1.25a.6.6 0 0 0 .186.44.6.6 0 0 0 .439.185h1.25a.6.6 0 0 0 .44-.186.6.6 0 0 0 .185-.439v-1.25a.6.6 0 0 0-.186-.44.6.6 0 0 0-.439-.185zm17.5.625H6.25a.6.6 0 0 0-.44.186.6.6 0 0 0-.185.439.6.6 0 0 0 .186.44.6.6 0 0 0 .439.185h13.125a.6.6 0 0 0 .44-.186.6.6 0 0 0 .185-.439.6.6 0 0 0-.186-.44.6.6 0 0 0-.439-.185zM1.875 0H.625a.6.6 0 0 0-.44.186A.6.6 0 0 0 0 .625v1.25a.6.6 0 0 0 .186.44.6.6 0 0 0 .439.185h1.25a.6.6 0 0 0 .44-.186.6.6 0 0 0 .185-.439V.625a.6.6 0 0 0-.186-.44A.6.6 0 0 0 1.875 0zM6.25 1.875h13.125a.6.6 0 0 0 .44-.186A.6.6 0 0 0 20 1.25a.6.6 0 0 0-.186-.44.6.6 0 0 0-.439-.185H6.25a.6.6 0 0 0-.44.186.6.6 0 0 0-.185.439.6.6 0 0 0 .186.44.6.6 0 0 0 .439.185z"/>
</svg>
