<svg xmlns="http://www.w3.org/2000/svg" width="11" height="18" viewBox="0 0 11 18">
    <path fill="#FFF" fill-rule="evenodd" d="M5.7 8.2c.902.233 1.626.482 2.17.747.747.357 1.314.785 1.703 1.283.467.607.7 1.346.7 2.217 0 .949-.334 1.726-1.003 2.333-.591.544-1.4.918-2.427 1.12V18H3.927v-2.1c-.996-.218-1.805-.622-2.427-1.213-.684-.654-1.058-1.494-1.12-2.52h2.147c.03.622.264 1.104.7 1.446.497.405 1.22.607 2.17.607.949 0 1.656-.202 2.123-.607.342-.31.513-.684.513-1.12 0-.529-.186-.964-.56-1.306-.466-.451-1.252-.81-2.356-1.074-1.463-.342-2.56-.809-3.29-1.4C.987 8.03.567 7.158.567 6.1c0-.902.326-1.672.98-2.31.606-.591 1.4-.988 2.38-1.19V.5h2.916v2.147c.996.233 1.774.7 2.334 1.4.513.653.785 1.415.816 2.286H7.847C7.8 4.964 6.983 4.28 5.397 4.28c-.81 0-1.447.167-1.914.502-.466.334-.7.774-.7 1.318 0 .467.218.863.654 1.19.435.327 1.19.63 2.263.91z"/>
</svg>
