<?xml version="1.0" encoding="UTF-8" standalone="no"?>
<svg width="20px" height="12px" viewBox="0 0 90 54" version="1.1" xmlns="http://www.w3.org/2000/svg" xmlns:xlink="http://www.w3.org/1999/xlink">
    <!-- Generator: Sketch 39.1 (31720) - http://www.bohemiancoding.com/sketch -->
    <title>marker_black</title>
    <desc>Created with Sketch.</desc>
    <defs></defs>
    <g id="Page-1" stroke="none" stroke-width="1" fill="none" fill-rule="evenodd">
        <path d="M89.4332516,36.9696861 C89.7592591,34.5379156 90.8182837,22.051307 88.7832365,18.9709979 C86.7481892,15.8906888 77.1459662,14.7559954 79.3440173,14.7559954 C81.5420683,14.7559954 85.0451497,14.6205097 86.180176,13.2965346 C86.4441821,12.9877068 86.3681804,12.033329 86.180176,11.6746901 C85.4851599,10.3547 83.0061023,9.48599706 80.6450475,9.40530333 C78.2859927,9.32361337 78.6920021,11.4316127 78.6920021,11.4316127 L76.1709436,12.2415387 C76.1709436,12.2415387 69.5887907,3.62524084 66.3227149,1.94561565 C59.0805467,-0.648538552 30.9208927,-0.648538552 23.6777245,1.94561565 C20.4106486,3.62524084 13.8294958,12.2415387 13.8294958,12.2415387 L11.3074372,11.4316127 C11.3074372,11.4316127 11.7144466,9.32361337 9.35439184,9.40530333 C6.99433703,9.48599706 4.51427943,10.3547 3.82026332,11.6746901 C3.63225895,12.033329 3.55625719,12.9877068 3.82026332,13.2965346 C4.95528968,14.6205097 8.45937105,14.7559954 10.6564221,14.7559954 C12.8544731,14.7559954 3.2512501,15.8906888 1.21720286,18.9709979 C-0.817844397,22.0523032 0.240180174,34.5379156 0.566187745,36.9696861 C0.892195316,39.4014566 -1.14285195,53.9950684 3.33325201,53.9950684 L12.6104675,53.9950684 C12.6104675,53.9950684 13.9944996,54.3188395 14.1575034,49.6983759 L75.845936,49.6983759 C76.0079398,54.3198357 77.3909719,53.9950684 77.3909719,53.9950684 L86.6701874,53.9950684 C91.1422913,53.9950684 89.108244,39.4024528 89.4332516,36.9696861 L89.4332516,36.9696861 L89.4332516,36.9696861 Z M65.3329643,3.95887266 L74.2837007,14.5037903 C74.2837007,14.5037903 50.177041,13.512358 44.9406068,13.5123579 C39.7041727,13.5123578 15.5975124,14.5037903 15.5975124,14.5037903 L24.5492052,3.95887266 C30.5409098,1.94287648 59.3403034,1.94287648 65.3329643,3.95887266 L65.3329643,3.95887266 Z M5.28329729,21.9716095 C5.28329729,19.2947691 9.27138991,18.5655368 9.27138991,18.5655368 C14.0725014,17.9179945 16.1885506,27.8074602 15.3755317,29.0238436 C14.5625128,30.2402269 11.7944485,29.9164558 8.78337858,29.1872235 C5.77130863,28.456995 5.28329729,24.6454612 5.28329729,21.9716095 L5.28329729,21.9716095 L5.28329729,21.9716095 Z M20.1766432,45.2392998 C18.1415959,44.9155286 11.5174421,44.1853001 10.4754179,42.1579945 C9.43339367,40.1316851 8.29436722,37.1310736 8.29436722,37.1310736 C8.29436722,37.1310736 7.40734662,35.0938058 9.27138991,35.2671479 L16.2705525,35.9146902 C16.2705525,35.9146902 18.3856016,36.4008451 18.9566148,37.9419958 C19.5256281,39.4831466 22.2106904,45.563071 20.1766432,45.2392998 L20.1766432,45.2392998 L20.1766432,45.2392998 Z M59.484556,45.2771561 C51.2653652,45.9675359 38.7300741,45.9675359 30.5118832,45.2771561 C22.2916923,44.5847839 21.2346677,39.4831466 20.9086602,37.374151 C20.5826526,35.2671479 23.6757244,35.2561895 23.6757244,35.2561895 L66.3207148,35.2561895 C66.3207148,35.2561895 69.4127866,35.2671479 69.0887791,37.374151 C68.7627715,39.4831466 67.7037469,44.5847839 59.484556,45.2771561 L59.484556,45.2771561 L59.484556,45.2771561 Z M81.702072,37.1310736 C81.702072,37.1310736 80.5630456,40.1316851 79.5200213,42.1579945 C78.4789972,44.1853001 71.8538433,44.9155286 69.8207961,45.2392998 C67.7857488,45.563071 70.4708112,39.4831466 71.0398244,37.942992 C71.6098376,36.4018413 73.7278868,35.9156864 73.7278868,35.9156864 L80.7260494,35.2681441 C82.5890926,35.0938058 81.702072,37.1310736 81.702072,37.1310736 L81.702072,37.1310736 L81.702072,37.1310736 Z M81.2140607,29.1872235 C78.2019907,29.9164558 75.4369265,30.2402269 74.6219076,29.0238436 C73.8068887,27.8074602 75.9249379,17.9179945 80.7260494,18.5655368 C80.7260494,18.5655368 84.714142,19.2947691 84.714142,21.9716095 C84.714142,24.6454612 84.2261306,28.456995 81.2140607,29.1872235 L81.2140607,29.1872235 L81.2140607,29.1872235 Z" id="marker_black" fill="#000000"></path>
    </g>
</svg>