<svg xmlns="http://www.w3.org/2000/svg" xmlns:xlink="http://www.w3.org/1999/xlink" width="90px" height="30px" viewBox="0 0 90 30" version="1.1">
    <!-- Generator: Sketch 39.1 (31720) - http://www.bohemiancoding.com/sketch -->
    <title>footer_logo</title>
    <desc>Created with Sketch.</desc>
    <defs/>
    <g id="Page-1" stroke="none" stroke-width="1" fill="#979797" fill-rule="evenodd" opacity="0.7">
        <g id="Artboard" transform="translate(-58.000000, -99.000000)" fill="#ffffff">
            <g id="footer_logo" transform="translate(25.000000, 99.000000)">
                <path d="M54.1650986,24.3896104 C52.9001846,25.5584475 51.5362316,26.1428571 50.0731985,26.1428571 C48.2596471,26.1428571 46.5832803,25.080294 45.0440476,22.9551358 L44.8611694,22.9551358 C42.5142206,22.9551358 40.5330597,22.1733928 38.9176273,20.6098836 C37.2869552,19.0463744 36.4716312,17.1413504 36.4716312,14.8947546 C36.4716312,12.6481588 37.2869552,10.7507245 38.9176273,9.202395 C40.5330597,7.65406545 42.5142206,6.8799123 44.8611694,6.8799123 C47.1928783,6.8799123 49.1740391,7.65406545 50.8047113,9.202395 C52.4201437,10.7507245 53.2278477,12.6481588 53.2278477,14.8947546 C53.2278477,16.7618579 52.6411193,18.4164205 51.467645,19.8584922 C50.3246502,21.2853841 48.8463995,22.2265114 47.0328482,22.6819024 C48.1453628,23.8659193 49.2273815,24.4579187 50.2789365,24.4579187 C51.2085722,24.4579187 52.2372518,23.9797652 53.3650063,23.0234441 L54.1650986,24.3896104 L54.1650986,24.3896104 Z M40.2663543,19.3575645 C41.5312681,20.5871203 43.062858,21.201889 44.8611694,21.201889 C46.6442409,21.201889 48.1758306,20.5871203 49.4559846,19.3575645 C50.7208984,18.1280087 51.3533461,16.6404203 51.3533461,14.8947546 C51.3533461,13.1490889 50.7208984,11.6615005 49.4559846,10.4319447 C48.1758306,9.21756857 46.6442409,8.61038961 44.8611694,8.61038961 C43.062858,8.61038961 41.5312681,9.21756857 40.2663543,10.4319447 C38.9709604,11.6615005 38.3232732,13.1490889 38.3232732,14.8947546 C38.3232732,16.6404203 38.9709604,18.1280087 40.2663543,19.3575645 L40.2663543,19.3575645 L40.2663543,19.3575645 Z M70.0297839,16.3064598 C70.0297839,18.3860789 69.4354355,20.0102826 68.2467212,21.1791196 C67.0580069,22.3631364 65.4197392,22.9551358 63.3318692,22.9551358 C61.2287592,22.9551358 59.5828717,22.3631364 58.3941574,21.1791196 C57.1902031,20.0102826 56.588235,18.3860789 56.588235,16.3064598 L56.588235,6.92545116 L58.4170172,6.92545116 L58.4170172,16.3064598 C58.4170172,17.8396096 58.8589684,19.0387881 59.7428841,19.904031 C60.6115601,20.769274 61.8078763,21.201889 63.3318692,21.201889 C64.8558618,21.201889 66.0445585,20.769274 66.8979943,19.904031 C67.7666702,19.0539678 68.2010017,17.8547893 68.2010017,16.3064598 L68.2010017,9.79440041 C68.2162417,8.48894608 68.7877302,7.53263923 69.915485,6.92545116 L70.8527358,8.49654242 C70.3498181,8.87603496 70.0755036,9.51357285 70.0297839,10.4091752 L70.0297839,16.3064598 L70.0297839,16.3064598 Z M80.9796171,6.92545116 C83.3113259,6.92545116 85.2696272,7.68442487 86.8545796,9.202395 C88.4242923,10.7355449 89.2091367,12.6329791 89.2091367,14.8947546 C89.2091367,17.1565301 88.4166725,19.0539643 86.8317199,20.5871142 C85.2467675,22.1050843 83.2732264,22.8640579 80.9110378,22.8640579 L74.5103002,22.8640579 L74.5103002,6.92545116 L80.9796171,6.92545116 L80.9796171,6.92545116 Z M76.3390824,21.1335807 L81.0024769,21.1335807 C82.8007883,21.1335807 84.3095184,20.5415812 85.5287127,19.3575645 C86.7479068,18.1735478 87.3574949,16.6935491 87.3574949,14.917524 C87.3574949,13.141499 86.7326672,11.6539105 85.4829931,10.4547141 C84.2485589,9.27069739 82.732209,8.67869792 80.9338975,8.67869792 L76.3390824,8.67869792 L76.3390824,21.1335807 L76.3390824,21.1335807 Z M104.982383,9.202395 C106.597815,10.7507245 107.405519,12.6481588 107.405519,14.8947546 C107.405519,17.1413504 106.597815,19.0463744 104.982383,20.6098836 C103.351711,22.1733928 101.37055,22.9551358 99.0388409,22.9551358 C96.6918921,22.9551358 94.7107312,22.1733928 93.0952988,20.6098836 C91.4646266,19.0463744 90.6493027,17.1413504 90.6493027,14.8947546 C90.6493027,12.6481588 91.4646266,10.7507245 93.0952988,9.202395 C94.7107312,7.65406545 96.6918921,6.8799123 99.0388409,6.8799123 C101.37055,6.8799123 103.351711,7.65406545 104.982383,9.202395 L104.982383,9.202395 L104.982383,9.202395 Z M94.4440257,10.4319447 C93.1486319,11.6615005 92.5009447,13.1490889 92.5009447,14.8947546 C92.5009447,16.6404203 93.1486319,18.1280087 94.4440257,19.3575645 C95.7089396,20.5871203 97.2405295,21.201889 99.0388409,21.201889 C100.821912,21.201889 102.353502,20.5871203 103.633656,19.3575645 C104.89857,18.1280087 105.531018,16.6404203 105.531018,14.8947546 C105.531018,13.1490889 104.89857,11.6615005 103.633656,10.4319447 C102.353502,9.21756857 100.821912,8.61038961 99.0388409,8.61038961 C97.2405295,8.61038961 95.7089396,9.21756857 94.4440257,10.4319447 L94.4440257,10.4319447 L94.4440257,10.4319447 Z M120.572751,8.33715634 L119.795518,10.0448642 C118.454405,9.14926185 116.983774,8.70146736 115.383581,8.70146736 C114.347266,8.70146736 113.524323,8.88362104 112.914726,9.24793389 C112.289888,9.62742643 111.977475,10.1511183 111.977475,10.8190251 C111.977475,11.7146275 112.449905,12.4204731 113.394781,12.9365829 C113.806259,13.1642784 114.834938,13.5361755 116.480851,14.0522854 C117.913404,14.5076764 118.942083,14.9858298 119.566921,15.48676 C120.496556,16.2457451 120.961367,17.2703595 120.961367,18.5606342 C120.961367,19.8812682 120.427977,20.9438314 119.361183,21.7483556 C118.294388,22.5376999 116.899955,22.9323664 115.177843,22.9323664 C112.800415,22.9323664 110.758295,22.1202645 109.051423,20.4960364 L109.874375,18.8566369 C111.428848,20.3594273 113.204273,21.1108113 115.200703,21.1108113 C116.358938,21.1108113 117.273319,20.8907089 117.943876,20.4504976 C118.614433,20.0102862 118.949707,19.410697 118.949707,18.6517119 C118.949707,17.7257501 118.484896,17.0047251 117.55526,16.4886153 C117.113302,16.2457401 116.084623,15.8814327 114.46919,15.3956822 C113.036637,14.9554709 112.007958,14.4924969 111.38312,14.0067465 C110.438245,13.2629411 109.965814,12.2535061 109.965814,10.9784112 C109.965814,9.73367567 110.476344,8.73183041 111.497419,7.97284534 C112.503254,7.22903996 113.836728,6.85714286 115.49788,6.85714286 C117.402871,6.85714286 119.094478,7.35047576 120.572751,8.33715634 L120.572751,8.33715634 L120.572751,8.33715634 Z" id="Taxi"/>
            </g>
        </g>
    </g>
</svg>