<?xml version="1.0" encoding="UTF-8"?>
<svg width="184px" height="180px" viewBox="0 0 184 180" version="1.1" xmlns="http://www.w3.org/2000/svg" xmlns:xlink="http://www.w3.org/1999/xlink">
    <!-- Generator: Sketch 41.2 (35397) - http://www.bohemiancoding.com/sketch -->
    <title>no_document</title>
    <desc>Created with Sketch.</desc>
    <defs></defs>
    <g id="Page-1" stroke="none" stroke-width="1" fill="none" fill-rule="evenodd">
        <g id="no_document">
            <g id="Page-1">
                <g>
                    <g id="split_fare-copy">
                        <g id="Group-4">
                            <g id="no_document">
                                <g id="Group-2" transform="translate(65.357143, 16.363636)">
                                    <path d="M0.967068658,6.72759558 C0.967068658,3.3567505 3.70426354,0.624140646 7.08675807,0.624140646 L87.2619073,0.624140646 L117.718909,31.1197202 L117.718909,157.158514 C117.718909,160.532266 114.976496,163.267232 111.606206,163.267232 L7.07977206,163.267232 C3.70381919,163.267232 0.967068658,160.529437 0.967068658,157.163777 L0.967068658,6.72759558 Z" id="Rectangle-1" fill="#4D5052"></path>
                                    <path d="M87.2822769,0.624249626 L117.739279,31.1198292 L93.3907771,31.1198292 C90.0171456,31.1198292 87.2822769,28.3867122 87.2822769,25.0035917 L87.2822769,0.624249626 Z" id="Rectangle-2" fill="#000000" opacity="0.400000006"></path>
                                </g>
                                <path d="M155.643406,86.2697251 C148.749844,72.4419215 127.598285,66.2355058 113.629031,71.7037071 C98.9282941,77.4587072 88.4735647,99.7902441 94.0011484,114.527464 C99.4894927,129.161523 120.185726,132.529215 133.542696,128.963252 C136.659643,128.129925 139.533009,126.666666 142.041374,124.670048 C141.832591,124.836859 138.70898,124.403734 137.737618,125.177799 C126.054619,134.476814 105.129612,127.265139 98.7965087,114.62916 C95.7587809,108.568339 97.0788561,100.70405 98.9157079,94.511535 C101.105715,87.1264636 105.40799,80.21622 111.314642,75.1884599 C123.665453,64.6742078 146.247402,75.3347858 152.040037,88.7843368 C159.694697,106.555625 141.064089,119.811294 126.065724,123.529437 C123.352278,124.201805 127.597545,124.021824 128.41343,123.819162 C137.126815,121.659391 145.626234,117.962466 151.813485,111.349995 C158.035533,104.703138 159.703581,94.4193497 155.643406,86.2697251 Z M144.498654,106.143717 C133.870679,96.2264753 111.586357,95.6879958 106.721402,112.045044 C106.428957,113.026159 110.127093,114.882304 110.10192,114.964978 C111.892129,108.947323 116.500917,105.098218 122.384617,103.108185 C128.492649,101.043526 138.166291,101.211801 143.157108,105.867161 C144.245448,106.884127 146.780467,108.273492 144.498654,106.143717 Z M113.982186,88.6994677 C111.059216,88.6994677 111.658913,92.0649649 114.224287,92.0649649 C117.147998,92.0649649 116.5483,88.6994677 113.982186,88.6994677 Z M136.430129,87.9078443 C136.102887,87.4381379 135.658666,87.0372048 135.172985,86.7299203 C134.813907,86.5038467 134.280102,86.2155845 133.830699,86.2470446 C133.393882,86.2770414 132.921527,86.3743482 132.715705,86.8023516 C132.526912,87.1952368 132.500999,87.5434926 132.500999,87.9714961 C132.498778,88.9613912 133.34946,89.7844748 134.143134,90.2849096 C134.534048,90.5314688 135.007883,90.7590057 135.48542,90.7677852 C135.754914,90.7729066 136.181366,90.63975 136.182846,90.2929575 C136.182846,90.0537145 136.185067,89.8188614 136.223566,89.5825449 C136.227268,89.5540114 136.228749,89.5357206 136.228749,89.5203564 C136.236153,89.5115768 136.241335,89.5064554 136.25022,89.4925545 C136.2517,89.4910912 136.2517,89.4918228 136.2517,89.4910912 C137.070547,89.3381806 136.81586,88.4609564 136.430129,87.9078443 Z" id="Combined-Shape" fill="#000000" opacity="0.300000012"></path>
                                <g id="Group-2">
                                    <path d="M0.967068658,6.72759558 C0.967068658,3.3567505 3.70426354,0.624140646 7.08675807,0.624140646 L87.2619073,0.624140646 L117.718909,31.1197202 L117.718909,157.158514 C117.718909,160.532266 114.976496,163.267232 111.606206,163.267232 L7.07977206,163.267232 C3.70381919,163.267232 0.967068658,160.529437 0.967068658,157.163777 L0.967068658,6.72759558 Z" id="Rectangle-1" fill="#333638"></path>
                                    <path d="M87.2822769,0.624249626 L117.739279,31.1198292 L93.3907771,31.1198292 C90.0171456,31.1198292 87.2822769,28.3867122 87.2822769,25.0035917 L87.2822769,0.624249626 Z" id="Rectangle-2" fill="#000000" opacity="0.400000006"></path>
                                </g>
                                <path d="M90.2862631,69.9060887 C83.3927013,56.0782852 62.2411423,49.8718694 48.2718883,55.3400707 C33.5711513,61.0950708 23.1164218,83.4266078 28.6440056,98.1638272 C34.1323498,112.797887 54.8285829,116.165579 68.1855529,112.599615 C71.3025001,111.766289 74.1758663,110.303029 76.6842314,108.306411 C76.4754478,108.473223 73.3518373,108.040098 72.3804751,108.814162 C60.697476,118.113177 39.7724694,110.901502 33.4393658,98.2655238 C30.401638,92.2047023 31.7217133,84.3404134 33.558565,78.1478986 C35.7485721,70.7628273 40.0508476,63.8525836 45.9574995,58.8248235 C58.3083101,48.3105714 80.8902592,58.9711495 86.6828945,72.4207004 C94.337554,90.1919887 75.7069463,103.447658 60.7085815,107.1658 C57.9951347,107.838168 62.2404019,107.658187 63.0562869,107.455526 C71.769672,105.295755 80.2690908,101.598829 86.456342,94.9863589 C92.6783905,88.339502 94.3464384,78.0557133 90.2862631,69.9060887 Z M79.1415111,89.7800811 C68.5135357,79.8628389 46.2292144,79.3243594 41.3642595,95.6814072 C41.0718144,96.6625228 44.76995,98.5186677 44.7447775,98.6013418 C46.5349862,92.5836866 51.1437738,88.7345821 57.0274743,86.744549 C63.1355062,84.6798897 72.8091479,84.8481645 77.7999652,89.5035251 C78.8883054,90.5204905 81.4233238,91.9098555 79.1415111,89.7800811 Z M48.6250436,72.3358314 C45.7020727,72.3358314 46.3017704,75.7013285 48.8671438,75.7013285 C51.790855,75.7013285 51.1911573,72.3358314 48.6250436,72.3358314 Z M71.0729861,71.5442079 C70.7457437,71.0745016 70.3015232,70.6735684 69.8158421,70.3662839 C69.4567639,70.1402103 68.9229589,69.8519481 68.4735559,69.8834082 C68.036739,69.913405 67.5643846,70.0107118 67.3585624,70.4387153 C67.1697687,70.8316005 67.1438558,71.1798563 67.1438558,71.6078597 C67.1416347,72.5977548 67.992317,73.4208384 68.7859909,73.9212732 C69.176905,74.1678324 69.6507402,74.3953693 70.1282772,74.4041489 C70.397771,74.4092703 70.8242227,74.2761136 70.8257034,73.9293211 C70.8257034,73.6900782 70.8279245,73.455225 70.8664236,73.2189086 C70.8701254,73.190375 70.8716062,73.1720843 70.8716062,73.15672 C70.8790099,73.1479405 70.8841924,73.1428191 70.8930768,73.1289181 C70.8945576,73.1274548 70.8945576,73.1281865 70.8945576,73.1274548 C71.713404,72.9745442 71.4587176,72.0973201 71.0729861,71.5442079 Z" id="Combined-Shape" fill="#000000" opacity="0.300000012"></path>
                            </g>
                        </g>
                    </g>
                </g>
            </g>
        </g>
    </g>
</svg>