<?xml version="1.0" encoding="UTF-8"?>
<svg width="421px" height="200px" viewBox="0 0 421 200" version="1.1" xmlns="http://www.w3.org/2000/svg" xmlns:xlink="http://www.w3.org/1999/xlink">
    <!-- Generator: Sketch 41.2 (35397) - http://www.bohemiancoding.com/sketch -->
    <title>no_fav_drivers</title>
    <desc>Created with Sketch.</desc>
    <defs></defs>
    <g id="Page-1" stroke="none" stroke-width="1" fill="none" fill-rule="evenodd">
        <g id="no_fav_drivers">
            <g id="Layer_1">
                <path d="M180.2,95.6 C154,86.8 151.9,42.5 151.9,42.5 C151,19.3 132,1 108.8,1 C85.6,1 66.6,19.4 65.8,42.5 C65.8,42.5 56.5,125.7 101,154.2 C145.5,182.7 127.2,137.2 147.9,141.8 C168.6,146.4 167.3,116.1 190.9,123.2 C214.5,130.3 206.5,104.4 180.2,95.6 Z M73.7,42.2 C73.7,36.6 78.2,32.1 83.8,32.1 C89.4,32.1 93.9,36.6 93.9,42.2 C93.9,47.8 89.4,52.3 83.8,52.3 C78.2,52.3 73.7,47.8 73.7,42.2 Z M126.9,77.9 C126.1,80.8 123.3,81.4 121.1,80.6 C119.9,80.4 118.9,79.6 118.3,78.6 L118.2,78.4 C118.2,78.4 118.1,78.3 118,78.3 C117.9,78.3 117,77.9 116.8,77.9 C115.5,77.7 114.2,77.6 112.9,77.6 C110.1,77.6 107.2,78 104.4,77.7 C100.8,77.3 97.5,76 93.9,76.2 C90.5,76.4 88.2,78.1 86.1,80.6 C83.6,83.8 78.9,80.9 78.8,77.6 C78.5,72.4 81,66.1 85.3,62.8 C88.1,60.6 91.5,60 95,60.2 C98.4,60.4 100.5,62 102.9,64.3 C105.3,66.5 107.4,65.6 109.8,64 C112.2,62.4 115.6,61.8 118.4,62.9 C124.3,65.2 128.7,71.4 126.9,77.9 Z M118.6,54 C113,54 108.5,49.5 108.5,43.9 C108.5,38.3 113,33.8 118.6,33.8 C124.2,33.8 128.7,38.3 128.7,43.9 C128.7,49.5 124.2,54 118.6,54 Z" id="Shape" fill="#333638"></path>
                <path d="M225.5,131.2 C251.7,122.4 253.8,78.1 253.8,78.1 C253.6,62.6 261.7,48.1 275.2,40.3 C288.7,32.5 305.2,32.5 318.6,40.3 C332,48.1 340.2,62.6 340,78.1 C340,78.1 349.3,161.3 304.8,189.8 C260.3,218.3 278.6,172.8 257.9,177.4 C237.2,182 238.5,151.7 214.9,158.8 C191.2,165.9 199.3,140 225.5,131.2 Z M287.2,77 C290.9,77 294.5,78.6 297,81.3 C297.7,77.3 296,73.3 292.5,71 C289.1,68.8 284.7,68.8 281.3,71.1 C277.9,73.4 276.3,77.5 277.1,81.5 C279.8,78.7 283.4,77 287.2,77 L287.2,77 Z M321.5,75.5 C325.4,75.5 329.2,77.3 331.7,80.3 C332.7,76.3 331.2,72.1 327.9,69.6 C324.6,67.2 320.1,67 316.6,69.1 C313.1,71.2 311.3,75.4 312,79.4 C314.5,76.9 317.9,75.5 321.5,75.5 Z M315.9,105.6 C321.5,105.6 326,101.1 326,95.5 C326,89.9 321.5,85.4 315.9,85.4 C310.3,85.4 305.8,89.9 305.8,95.5 C305.8,101.1 310.4,105.6 315.9,105.6 Z" id="Combined-Shape_1_" fill="#333638"></path>
                <path d="M25,163 L21.4,159.7 C8.5,148 0,140.3 0,130.8 C0,123.1 6.1,117 13.8,117 C18.2,117 22.3,119 25,122.2 C27.7,119 31.9,117 36.2,117 C43.9,117 50,123.1 50,130.8 C50,140.3 41.5,148 28.6,159.7 L25,163 L25,163 Z" id="Shape-Copy" fill="#4D5052"></path>
                <path d="M376,112 L373.8,110 C366.1,102.9 361,98.2 361,92.4 C361,87.7 364.6,84 369.2,84 C371.8,84 374.3,85.2 376,87.2 C377.6,85.2 380.1,84 382.8,84 C387.4,84 391,87.7 391,92.4 C391,98.2 385.9,102.9 378.2,110 L376,112 L376,112 Z" id="Shape-Copy-3" fill="#4D5052"></path>
                <path d="M65,200 L62.8,198 C55.1,190.9 50,186.2 50,180.4 C50,175.7 53.6,172 58.2,172 C60.8,172 63.3,173.2 65,175.2 C66.6,173.2 69.1,172 71.8,172 C76.4,172 80,175.7 80,180.4 C80,186.2 74.9,190.9 67.2,198 L65,200 L65,200 Z" id="Shape-Copy-4" fill="#4D5052"></path>
                <path d="M386,64 L380.9,59.4 C362.9,43.1 351,32.4 351,19.2 C351,8.4 359.5,0 370.2,0 C376.3,0 382.1,2.8 386,7.3 C389.8,2.8 395.7,0 401.8,0 C412.5,0 421,8.4 421,19.2 C421,32.4 409.1,43.1 391.1,59.4 L386,64 L386,64 Z" id="Shape-Copy-2" fill="#4D5052"></path>
            </g>
        </g>
    </g>
</svg>