<?xml version="1.0" encoding="UTF-8"?>
<svg width="430px" height="202px" viewBox="0 0 430 202" version="1.1" xmlns="http://www.w3.org/2000/svg" xmlns:xlink="http://www.w3.org/1999/xlink">
    <!-- Generator: Sketch 41.2 (35397) - http://www.bohemiancoding.com/sketch -->
    <title>no_internet</title>
    <desc>Created with Sketch.</desc>
    <defs></defs>
    <g id="Page-1" stroke="none" stroke-width="1" fill="none" fill-rule="evenodd">
        <g id="no_internet">
            <g id="Page-1">
                <g>
                    <g id="no_internet">
                        <g id="Group-2">
                            <path d="M64.5570336,80.9436127 C66.1720135,81.8391511 67.6844947,82.8914087 69.0869772,84.0879475 C76.7193822,83.0058386 81.5518221,84.122774 83.086803,87.3367618 C84.5517848,90.3990056 82.5843093,94.6428626 77.3968738,99.6056379 C72.154439,104.61319 64.0945393,109.876966 55.282149,114.048682 C46.4697587,118.220399 37.277373,121.120948 30.0649628,122.004048 C22.9225517,122.879686 18.3726083,121.720461 16.9076265,118.653242 C15.3726456,115.44423 17.5501185,111.006339 23.2100481,105.797291 C23.1600487,103.95895 23.297547,102.128071 23.617543,100.314606 C4.81027704,112.297407 -1.69464201,122.175693 0.365332354,126.48174 C2.43780657,130.820126 14.1601607,132.029103 35.672393,124.9643 C42.4123091,122.752818 49.417222,119.931872 56.4921339,116.583553 C63.5695459,113.232747 70.1869635,109.608304 76.1668891,105.799778 C95.2516516,93.6577703 101.701571,83.8416744 99.6290972,79.5032884 C97.5691228,75.1997289 85.7667697,73.9857768 64.5570336,80.9436127 Z M40.7798295,126.558856 C47.0372516,129.484282 54.5121586,129.705679 61.2420748,126.519054 C67.9719911,123.33243 72.5169345,117.426852 74.1869138,110.750116 C69.101977,113.797434 63.642045,116.720372 57.8671168,119.456739 C52.0896887,122.188131 46.36476,124.55882 40.7798295,126.558856 Z M31.3399469,118.59354 C37.9548646,117.541282 46.0572638,114.894468 53.9071661,111.180472 C61.7570684,107.466475 68.9319791,102.881816 73.929417,98.4389503 C73.5719214,97.2100727 73.1394268,95.9886578 72.5694339,94.7946066 C66.8945045,82.9237476 52.6196821,77.873906 40.6873306,83.5232608 C28.7574791,89.1676403 23.6825422,103.374362 29.3574716,115.245221 C29.9299645,116.439272 30.607456,117.541282 31.3399469,118.59354 Z" id="Combined-Shape" fill="#4D5052"></path>
                            <path d="M366.20266,8.8801931 C369.109624,10.4888454 371.83209,12.3790119 374.356559,14.5283501 C388.094888,12.5845619 396.79328,14.5909088 399.556245,20.3641832 C402.193213,25.8648804 398.651757,33.488105 389.314373,42.4027199 C379.87799,51.3977674 365.370171,60.8530682 349.507868,68.3467069 C333.645566,75.8403456 317.099271,81.0505917 304.116933,82.6369016 C291.260593,84.2098061 283.070695,82.127495 280.433728,76.6178609 C277.670762,70.8535234 281.590213,62.8817575 291.778087,53.5247632 C291.688088,50.2225575 291.935585,46.9337572 292.511577,43.6762363 C258.658499,65.2008979 246.949644,82.9452266 250.657598,90.6801632 C254.388052,98.4731899 275.488289,100.644871 314.210307,87.9543912 C326.342156,83.9819137 338.951,78.9146589 351.685841,72.9000866 C364.425183,66.8810459 376.336534,60.3704725 387.1004,53.5292317 C421.452973,31.7185874 433.062828,14.0859707 429.332375,6.29294396 C425.624421,-1.43752409 404.380185,-3.61814167 366.20266,8.8801931 Z M323.403693,90.818686 C334.667053,96.0736169 348.121885,96.4713115 360.235735,90.7471903 C372.349584,85.0230692 380.530482,74.4149009 383.536445,62.4215042 C374.383559,67.8953905 364.555681,73.145853 354.16081,78.0611795 C343.76144,82.967569 333.456568,87.2260292 323.403693,90.818686 Z M306.411904,76.5106174 C318.318756,74.6204509 332.903075,69.8659896 347.032899,63.194551 C361.162723,56.5231124 374.077562,48.2877063 383.072951,40.3070034 C382.429459,38.0995749 381.650968,35.9055519 380.624981,33.7606822 C370.410108,12.4371021 344.715428,3.36609045 323.237195,13.5140054 C301.763462,23.6529835 292.628576,49.172465 302.843449,70.4960451 C303.873936,72.6409149 305.093421,74.6204509 306.411904,76.5106174 Z" id="Combined-Shape-Copy-3" fill="#4D5052"></path>
                            <path d="M238.498501,100.622851 L234.600323,96.7225522 L242.460118,96.7225522 L225.283632,79.5463617 L225.283632,87.4038345 L221.383266,83.505723 C218.780106,80.9004195 214.514422,80.9004195 211.913449,83.505723 L181.911475,113.504994 C179.308314,116.10811 179.308314,120.37372 181.911475,122.974649 L186.013093,127.076197 C185.100893,127.730257 184.204006,128.484942 183.344307,129.340252 C183.038053,129.644313 182.749299,129.950562 182.469295,130.265561 C170.223502,122.285589 153.659524,123.663709 142.912189,134.413047 L161.283067,152.783608 C161.189003,152.873295 161.094939,152.958607 161.000875,153.048295 C156.459563,157.589529 154.556412,163.051697 156.752692,165.24794 C158.948972,167.444182 164.413422,165.538876 168.952547,160.99983 C169.044423,160.905767 169.129737,160.811705 169.219425,160.717643 L187.590303,179.090392 C198.339825,168.341054 199.717969,151.777361 191.737859,139.531779 C192.052864,139.25178 192.359118,138.960843 192.663185,138.656782 C193.520696,137.797097 194.273207,136.900226 194.927278,135.992416 L199.031085,140.091777 C201.632058,142.694893 205.895554,142.694893 208.498715,140.091777 L238.498501,110.090318 C241.103849,107.48939 241.103849,103.225967 238.498501,100.622851 Z M167.351262,61.9997456 L196.958609,91.6070918 L178.592192,109.973509 L148.984846,80.3661625 L167.351262,61.9997456 Z M212.030816,143.420053 L230.394455,125.056414 L259.999746,154.661704 L241.636107,173.025343 L212.030816,143.420053 Z M124.372873,156.016722 L120,156.016722 C120,181.374134 140.628408,202 165.984069,202 L165.984069,197.627203 C143.039066,197.627203 124.372873,178.963517 124.372873,156.016722 Z M132.514859,156.016722 L128.139799,156.016722 C128.139799,176.883212 145.119407,193.862528 165.986256,193.862528 L165.986256,189.487543 C147.527878,189.487543 132.514859,174.474783 132.514859,156.016722 Z M148.643518,173.356974 C144.012517,168.726053 141.461857,162.568262 141.461857,156.016722 L137.088985,156.016722 C137.088985,163.734195 140.094651,170.992295 145.552538,176.450089 C151.010426,181.905695 158.266463,184.911309 165.981881,184.911309 L165.986256,184.911309 L165.986256,180.538512 L165.981881,180.538512 C159.432416,180.538512 153.274519,177.987896 148.643518,173.356974 Z M149.555718,156.016722 L145.182846,156.016722 C145.182846,167.487932 154.514849,176.819775 165.986256,176.819775 L165.986256,172.446977 C156.925507,172.446977 149.555718,165.077315 149.555718,156.016722 Z" id="Combined-Shape" fill="#333638"></path>
                        </g>
                    </g>
                </g>
            </g>
        </g>
    </g>
</svg>