<?xml version="1.0" encoding="UTF-8"?>
<svg width="450px" height="140px" viewBox="0 0 450 140" version="1.1" xmlns="http://www.w3.org/2000/svg" xmlns:xlink="http://www.w3.org/1999/xlink">
    <!-- Generator: Sketch 41.2 (35397) - http://www.bohemiancoding.com/sketch -->
    <title>no_notification</title>
    <desc>Created with Sketch.</desc>
    <defs></defs>
    <g id="Page-1" stroke="none" stroke-width="1" fill="none" fill-rule="evenodd">
        <g id="no_notification">
            <g id="Layer_1">
                <g id="Group-4" transform="translate(404.000000, 21.000000)" fill="#4D5052">
                    <path d="M14.4,40 L8.6,40 L8.6,34.3 L14.4,34.3 L14.4,40 L14.4,40 Z M20.3,17.9 L17.7,20.5 C15.6,22.6 14.3,24.3 14.3,28.6 L8.6,28.6 L8.6,27.2 C8.6,24.1 9.9,21.2 12,19.1 L15.6,15.5 C16.7,14.5 17.3,13 17.3,11.5 C17.3,8.4 14.7,5.8 11.5,5.8 C8.3,5.8 5.7,8.4 5.7,11.5 L0,11.5 C0,5.1 5.1,0 11.5,0 C17.9,0 23,5.1 23,11.4 C23,13.9 22,16.2 20.3,17.9 Z" id="Combined-Shape"></path>
                    <path d="M39.6,35 L35.4,35 L35.4,30.7 L39.6,30.7 L39.6,35 Z M44,18.4 L42.1,20.4 C40.6,22 39.6,23.2 39.6,26.5 L35.4,26.5 L35.4,25.4 C35.4,23 36.4,20.9 37.9,19.3 L40.5,16.6 C41.3,15.8 41.8,14.8 41.8,13.6 C41.8,11.2 39.9,9.3 37.6,9.3 C35.3,9.3 33.4,11.2 33.4,13.6 L29,13.6 C29,8.8 32.8,5 37.5,5 C42.2,5 46,8.8 46,13.6 C46,15.5 45.2,17.2 44,18.4 Z" id="Combined-Shape-Copy"></path>
                </g>
                <path d="M294,19 C294,17.3 295.3,16 297,16 L361,16 C362.7,16 364,17.3 364,19 C364,20.7 362.7,22 361,22 L297,22 C295.3,22 294,20.7 294,19 L294,19 L294,19 Z M294,41 C294,39.3 295.3,38 297,38 L381,38 C382.7,38 384,39.3 384,41 C384,42.7 382.7,44 381,44 L297,44 C295.3,44 294,42.7 294,41 L294,41 L294,41 Z M294,63 C294,61.3 295.3,60 297,60 L341,60 C342.7,60 344,61.3 344,63 C344,64.7 342.7,66 341,66 L297,66 C295.3,66 294,64.7 294,63 L294,63 L294,63 Z" id="Combined-Shape_1_" fill="#4D5052"></path>
                <path d="M90,19 C90,17.3 88.7,16 87,16 L23,16 C21.3,16 20,17.3 20,19 C20,20.7 21.3,22 23,22 L87,22 C88.7,22 90,20.7 90,19 L90,19 L90,19 Z M90,41 C90,39.3 88.7,38 87,38 L3,38 C1.3,38 0,39.3 0,41 C0,42.7 1.3,44 3,44 L87,44 C88.7,44 90,42.7 90,41 L90,41 L90,41 Z M90,63 C90,61.3 88.7,60 87,60 L43,60 C41.3,60 40,61.3 40,63 C40,64.7 41.3,66 43,66 L87,66 C88.7,66 90,64.7 90,63 L90,63 L90,63 Z" id="Combined-Shape-Copy-2" fill="#4D5052"></path>
                <g id="Group" transform="translate(100.000000, 0.000000)" fill="#333638">
                    <path d="M139.5,13.8 C128.1,13.8 118.8,23.1 118.8,34.5 L118.8,69 L160.3,69 L160.3,34.5 C160.2,23.1 150.9,13.8 139.5,13.8 Z" id="Shape"></path>
                    <path d="M122.8,129.7 C123,127.8 123.5,125.9 124.3,124.1 C125.9,120.4 129,117.2 133,115 C128.5,115.6 123.9,117.5 120.3,121.1 C118.5,122.9 116.9,125 115.7,127.3 C114.5,129.7 113.5,131.9 113,135 C112.7,132.2 112.8,128.7 113.2,125.5 C113.6,122.2 114.3,119 115.5,115.9 C117.8,109.7 122,103.9 128,100 C121.3,102.4 115.3,107.3 111.1,113.5 C109,116.6 107.3,120 105.9,123.6 C104.6,127.2 103.5,130.8 103,135 L103,93 L93,93 L93,135 C92.5,130.8 91.4,127.3 90.1,123.6 C88.7,120 87.1,116.6 84.9,113.5 C80.7,107.2 74.7,102.3 68,100 C74,103.9 78.2,109.6 80.5,115.9 C81.7,119 82.4,122.3 82.8,125.5 C83.2,128.7 83.3,132.2 83,135 C82.5,131.9 81.5,129.6 80.3,127.3 C79.1,125 77.5,122.9 75.7,121.1 C72.1,117.5 67.5,115.6 63,115 C67,117.2 70.1,120.4 71.7,124.1 C72.5,125.9 73,127.8 73.2,129.7 C73.4,131.5 73.4,133.7 73,135 L58,135 L58,140 L138,140 L138,135 L123,135 C122.6,133.6 122.6,131.5 122.8,129.7 Z" id="Shape"></path>
                    <path d="M139.5,0 L56.6,0 C37.5,0 22,15.4 22,34.5 L22,36.3 L0,36.3 L0,54.3 L15,54.3 L15,44.3 L31.5,44.3 L66,44.3 L66,52.3 L22,52.3 L22,82.7 L174,82.7 L174,34.5 C174,15.4 158.5,0 139.5,0 Z M167.1,75.9 L111.8,75.9 L111.8,34.5 C111.8,19.3 124.2,6.9 139.4,6.9 C154.6,6.9 167,19.3 167,34.5 L167,75.9 L167.1,75.9 Z" id="Shape"></path>
                </g>
            </g>
        </g>
    </g>
</svg>