<?xml version="1.0" encoding="UTF-8"?>
<svg width="421px" height="150px" viewBox="0 0 421 150" version="1.1" xmlns="http://www.w3.org/2000/svg" xmlns:xlink="http://www.w3.org/1999/xlink">
    <!-- Generator: Sketch 41.2 (35397) - http://www.bohemiancoding.com/sketch -->
    <title>no_payment</title>
    <desc>Created with Sketch.</desc>
    <defs></defs>
    <g id="Page-1" stroke="none" stroke-width="1" fill="none" fill-rule="evenodd">
        <g id="no_payment">
            <g id="Page-1">
                <g>
                    <g id="no_payment">
                        <g id="Group-2">
                            <path d="M251,17.2619048 L251,8.03571429 C251,3.57142857 247.4,0 242.9,0 L118.1,0 C113.6,0 110,3.57142857 110,8.03571429 L110,17.2619048 C110,18.75 111.2,19.9404762 112.7,19.9404762 L248,19.9404762 C249.8,20.2380952 251,18.75 251,17.2619048 Z M110,43.1547619 L110,91.9642857 C110,96.4285714 113.6,100 118.1,100 L242.9,100 C247.4,100 251,96.4285714 251,91.9642857 L251,43.1547619 C251,41.6666667 249.8,40.4761905 248.3,40.4761905 L112.7,40.4761905 C111.2,40.4761905 110,41.6666667 110,43.1547619 Z M178.1,80.0595238 L131.6,80.0595238 C129.2,80.0595238 127.1,77.9761905 127.1,75.5952381 C127.1,73.2142857 129.2,71.1309524 131.6,71.1309524 L178.1,71.1309524 C180.5,71.1309524 182.6,73.2142857 182.6,75.5952381 C182.6,77.9761905 180.5,80.0595238 178.1,80.0595238 Z" id="Combined-Shape-Copy" fill="#4D5052"></path>
                            <path d="M311,67.2619048 L311,58.0357143 C311,53.5714286 307.4,50 302.9,50 L178.1,50 C173.6,50 170,53.5714286 170,58.0357143 L170,67.2619048 C170,68.75 171.2,69.9404762 172.7,69.9404762 L308,69.9404762 C309.8,70.2380952 311,68.75 311,67.2619048 Z M170,93.1547619 L170,141.964286 C170,146.428571 173.6,150 178.1,150 L302.9,150 C307.4,150 311,146.428571 311,141.964286 L311,93.1547619 C311,91.6666667 309.8,90.4761905 308.3,90.4761905 L172.7,90.4761905 C171.2,90.4761905 170,91.6666667 170,93.1547619 Z M238.1,130.059524 L191.6,130.059524 C189.2,130.059524 187.1,127.97619 187.1,125.595238 C187.1,123.214286 189.2,121.130952 191.6,121.130952 L238.1,121.130952 C240.5,121.130952 242.6,123.214286 242.6,125.595238 C242.6,127.97619 240.5,130.059524 238.1,130.059524 Z" id="Combined-Shape" fill="#333638"></path>
                            <path d="M331,53 C331,51.3431458 332.335837,50 334.007813,50 L397.992188,50 C399.653356,50 401,51.3465171 401,53 C401,54.6568542 399.664163,56 397.992188,56 L334.007813,56 C332.346644,56 331,54.6534829 331,53 L331,53 L331,53 Z M331,75 C331,73.3431458 332.342096,72 333.994461,72 L418.005539,72 C419.659334,72 421,73.3465171 421,75 C421,76.6568542 419.657904,78 418.005539,78 L333.994461,78 C332.340666,78 331,76.6534829 331,75 L331,75 L331,75 Z M331,97 C331,95.3431458 332.337379,94 333.996532,94 L378.003468,94 C379.658407,94 381,95.3465171 381,97 C381,98.6568542 379.662621,100 378.003468,100 L333.996532,100 C332.341593,100 331,98.6534829 331,97 L331,97 L331,97 Z" id="Combined-Shape" fill="#333638"></path>
                            <path d="M1.8189894e-12,3 C1.8189894e-12,1.34314575 1.33583665,0 3.0078125,0 L66.9921875,0 C68.6533565,0 70,1.34651712 70,3 C70,4.65685425 68.6641634,6 66.9921875,6 L3.0078125,6 C1.34664353,6 1.8189894e-12,4.65348288 1.8189894e-12,3 L1.8189894e-12,3 L1.8189894e-12,3 Z M0,25 C0,23.3431458 1.34209558,22 2.99446106,22 L87.0055389,22 C88.6593341,22 90,23.3465171 90,25 C90,26.6568542 88.6579044,28 87.0055389,28 L2.99446106,28 C1.34066588,28 0,26.6534829 0,25 L0,25 L0,25 Z" id="Combined-Shape-Copy-2" fill="#4D5052" transform="translate(45.000000, 14.000000) scale(-1, -1) translate(-45.000000, -14.000000) "></path>
                        </g>
                    </g>
                </g>
            </g>
        </g>
    </g>
</svg>