<?xml version="1.0" encoding="UTF-8"?>
<svg width="420px" height="122px" viewBox="0 0 420 122" version="1.1" xmlns="http://www.w3.org/2000/svg" xmlns:xlink="http://www.w3.org/1999/xlink">
    <!-- Generator: Sketch 41.2 (35397) - http://www.bohemiancoding.com/sketch -->
    <title>no_ride</title>
    <desc>Created with Sketch.</desc>
    <defs></defs>
    <g id="Page-1" stroke="none" stroke-width="1" fill="none" fill-rule="evenodd">
        <g id="no_ride">
            <g id="Layer_1">
                <g id="Group-3">
                    <g id="Group-36" transform="translate(72.000000, 0.000000)" fill="#4D5052">
                        <path d="M96.7,54 L96.7,107 L145,107 L193.3,107 L193.3,54 L145,0 L96.7,54 Z M122.4,49.2 L139.6,49.2 L139.6,66.3 L122.4,66.3 L122.4,49.2 L122.4,49.2 Z M150.4,49.2 L167.6,49.2 L167.6,66.3 L150.4,66.3 L150.4,49.2 Z M150.4,77 L167.6,77 L167.6,94.1 L150.4,94.1 L150.4,77 Z M122.4,77 L139.6,77 L139.6,94.1 L122.4,94.1 L122.4,77 L122.4,77 Z" id="Combined-Shape"></path>
                        <path d="M0,54 L0,107 L48.3,107 L96.6,107 L96.6,54 L48.3,0 L0,54 Z M25.8,49.2 L43,49.2 L43,66.3 L25.8,66.3 L25.8,49.2 Z M53.7,49.2 L70.9,49.2 L70.9,66.3 L53.7,66.3 L53.7,49.2 Z M53.7,77 L70.9,77 L70.9,94.1 L53.7,94.1 L53.7,77 Z M25.8,77 L43,77 L43,94.1 L25.8,94.1 L25.8,77 Z" id="Combined-Shape-Copy-8"></path>
                        <path d="M193.3,54 L193.3,107 L241.6,107 L290,107 L290,54 L241.7,0 L193.3,54 Z M219.1,49.2 L236.3,49.2 L236.3,66.3 L219.1,66.3 L219.1,49.2 Z M247,49.2 L264.2,49.2 L264.2,66.3 L247,66.3 L247,49.2 Z M247,77 L264.2,77 L264.2,94.1 L247,94.1 L247,77 Z M219.1,77 L236.3,77 L236.3,94.1 L219.1,94.1 L219.1,77 Z" id="Combined-Shape-Copy-7"></path>
                    </g>
                    <path d="M395,75.2 C392.9,77.4 389.7,78.4 386.7,77.5 C382.9,76.4 380.5,72.7 380.9,68.8 C380.9,68.5 381,68.2 381,68 C376.3,68 372.4,64.5 372,59.8 C371.5,55.1 374.6,50.9 379.2,49.9 C378.8,48.7 378.7,47.4 378.9,46.2 C379.3,42.3 381.9,39 385.6,37.8 C389.3,36.6 393.3,37.8 395.9,40.7 C398.1,37.4 402.3,36.1 406,37.5 C409.7,38.9 412,42.6 411.6,46.6 C411.5,47.2 411.4,47.8 411.2,48.3 L411.5,48.3 C416.7,48.8 420.5,53.5 419.9,58.8 C419.5,63 416.4,66.5 412.2,67.3 C412.3,68 412.3,68.7 412.3,69.5 C412,73.2 409.3,76.3 405.7,77.2 C402.7,77.9 399.6,77 397.5,74.8 L397.5,107 L395,107 L395,75.2 Z M395,75.2 C395.5,74.7 395.9,74 396.3,73.3 C396.6,73.8 397,74.3 397.4,74.7 L397.4,71 L402.9,61.9 L402.2,61.9 L396.2,70 L390.2,61.9 L389.5,61.9 L395,71.1 L395,75.2 L395,75.2 Z" id="Combined-Shape_1_" fill="#333638"></path>
                    <path d="M29.1,66.9 C26.5,69.3 22.7,70.2 19.1,69.2 C14.2,67.8 11.1,63 11.6,58 C11.6,57.6 11.7,57.3 11.8,56.9 C5.8,56.9 0.7,52.4 0.1,46.4 C-0.5,40.4 3.5,34.9 9.4,33.7 C8.9,32.1 8.8,30.5 9,28.9 C9.5,23.9 12.9,19.7 17.6,18.1 C22.3,16.5 27.6,18.1 30.9,21.9 C33.8,17.7 39.2,16 44,17.7 C48.8,19.5 51.8,24.3 51.2,29.4 C51.1,30.2 51,30.9 50.8,31.6 L51,31.6 C57.7,32.3 62.6,38.3 61.9,45.1 L61.9,45.1 C61.4,50.5 57.4,55 52,56 C52.1,56.9 52.2,57.9 52.1,58.8 C51.6,63.6 48.2,67.5 43.6,68.7 C39.4,69.7 34.9,68.2 32.2,64.8 L32.2,107 L29.1,107 L29.1,66.9 Z M29.1,66.9 C30.1,66 30.9,65 31.5,63.8 C31.7,64.2 32,64.5 32.2,64.8 L32.2,60.8 L39.2,49 L38.3,49 L30.6,59.4 L22.8,49 L22,49 L29.1,60.8 L29.1,66.9 Z" id="Combined-Shape_2_" fill="#4D5052"></path>
                </g>
                <g id="Group-2" transform="translate(117.000000, 22.000000)" fill="#333638">
                    <g id="Group" transform="translate(57.000000, 49.000000)">
                        <path d="M105,29.5 C99.1,29.5 94.3,34.3 94.3,40.2 C94.3,46.1 99.1,50.9 105,50.9 C110.9,50.9 115.7,46.1 115.7,40.2 C115.6,34.3 110.8,29.5 105,29.5 Z M105,47.5 C101,47.5 97.8,44.3 97.8,40.3 C97.8,36.3 101,33.1 105,33.1 C109,33.1 112.2,36.3 112.2,40.3 C112.1,44.2 108.9,47.5 105,47.5 Z" id="Shape"></path>
                        <path d="M26.6,29.5 C20.7,29.5 15.9,34.3 15.9,40.2 C15.9,46.1 20.7,50.9 26.6,50.9 C32.5,50.9 37.3,46.1 37.3,40.2 C37.2,34.3 32.5,29.5 26.6,29.5 Z M26.6,47.5 C22.6,47.5 19.4,44.3 19.4,40.3 C19.4,36.3 22.6,33.1 26.6,33.1 C30.6,33.1 33.8,36.3 33.8,40.3 C33.7,44.2 30.5,47.5 26.6,47.5 Z" id="Shape"></path>
                        <path d="M127.8,36.4 L126.5,36.4 C126.1,34.7 125.7,33.2 125.3,31.7 L125.6,31.6 C126.9,31.3 127.7,29.9 127.4,28.6 C127.1,27.3 125.7,26.5 124.4,26.8 L123.8,27 C113.9,-1 95.6,1 93.2,1 L61.5,1 C50.3,1 41.4,13.1 38.1,16.6 L13.1,16.6 C7.8,16.6 3.8,20.6 3.5,25.8 C3.3,25.7 3.1,25.7 2.9,25.7 L2.8,25.7 C1.7,25.7 0.9,26.6 0.9,27.6 L0.9,32 C0.9,33.1 1.8,33.9 2.8,33.9 L3,33.9 C3.2,33.9 3.4,33.9 3.6,33.8 L3.6,36.4 L3.3,36.4 C2.1,36.4 1.1,37.3 1.1,38.3 L1.1,38.5 C1.1,39.6 2.1,40.4 3.3,40.4 L12.4,40.4 C12.7,32.4 18.9,26 26.6,26 C34.3,26 40.6,32.4 40.9,40.5 L90.7,40.5 C91,32.4 97.3,26 105,26 C112.7,26 119,32.4 119.3,40.5 L127.7,40.5 C128.9,40.5 129.9,39.6 129.9,38.6 L129.9,38.4 C130,37.3 129,36.4 127.8,36.4 Z M73.7,21.9 C73.7,22.8 73,23.5 72.1,23.5 L66.3,23.5 C65.4,23.5 64.7,22.8 64.7,21.9 L64.7,21.7 C64.7,20.8 65.4,20.1 66.3,20.1 L72.1,20.1 C73,20.1 73.7,20.8 73.7,21.7 L73.7,21.9 Z M73.7,16.6 L42.5,16.6 C50.1,6.2 57.2,3.9 61.1,3.9 C64,3.9 68.7,3.9 73.6,4 L73.6,16.6 L73.7,16.6 Z M86.1,21.9 C86.1,22.8 85.4,23.5 84.5,23.5 L78.7,23.5 C77.8,23.5 77.1,22.8 77.1,21.9 L77.1,21.7 C77.1,20.8 77.8,20.1 78.7,20.1 L84.5,20.1 C85.4,20.1 86.1,20.8 86.1,21.7 L86.1,21.9 Z M77.1,16.6 L77.1,4 C85.4,4.1 93.3,4.1 93.3,4.1 C106.2,4.1 113.6,16.6 113.6,16.6 L77.1,16.6 Z" id="Shape"></path>
                    </g>
                    <path d="M48,24.2 C48,10.9 37.2,0 24,0 C10.8,0 0,10.9 0,24.2 C0,35.8 8.3,52.6 20.3,55.5 L20.3,98 C20.3,99.1 21.2,100 22.3,100 L25.7,100 C26.8,100 27.7,99.1 27.7,98 L27.7,55.5 C39.7,52.6 48,35.8 48,24.2 Z M24,7.5 C33.2,7.5 40.6,15 40.6,24.2 C40.6,25.4 40.5,26.6 40.3,27.8 L28.6,27.8 C28.7,27.4 28.8,27 28.8,26.6 C28.8,24.5 27.4,22.7 25.5,22.1 L25.5,11.1 L22.7,11.1 L22.7,22.1 C20.8,22.7 19.4,24.5 19.4,26.6 C19.4,27 19.5,27.4 19.6,27.8 L7.7,27.8 C7.5,26.6 7.4,25.3 7.4,24.2 C7.4,15 14.8,7.5 24,7.5 Z M32.5,16 C32.5,15 31.7,14.2 30.7,14.2 C29.7,14.2 28.9,15 28.9,16 C28.9,17 29.7,17.8 30.7,17.8 C31.7,17.9 32.5,17.1 32.5,16 Z M36.5,22.7 C36.5,21.7 35.7,20.9 34.7,20.9 C33.7,20.9 32.9,21.7 32.9,22.7 C32.9,23.7 33.7,24.5 34.7,24.5 C35.7,24.5 36.5,23.7 36.5,22.7 Z M18.2,16 C18.2,15 17.4,14.2 16.4,14.2 C15.4,14.2 14.5,15 14.5,16 C14.5,17 15.3,17.8 16.3,17.8 C17.3,17.8 18.2,17.1 18.2,16 Z M14.5,22.7 C14.5,21.7 13.7,20.9 12.7,20.9 C11.7,20.9 10.9,21.7 10.9,22.7 C10.9,23.7 11.7,24.5 12.7,24.5 C13.7,24.5 14.5,23.7 14.5,22.7 Z" id="Combined-Shape_4_"></path>
                </g>
            </g>
        </g>
    </g>
</svg>