<?xml version="1.0" encoding="UTF-8"?>
<svg width="420px" height="173px" viewBox="0 0 420 173" version="1.1" xmlns="http://www.w3.org/2000/svg" xmlns:xlink="http://www.w3.org/1999/xlink">
    <!-- Generator: Sketch 41.2 (35397) - http://www.bohemiancoding.com/sketch -->
    <title>no_schedule_ride</title>
    <desc>Created with Sketch.</desc>
    <defs></defs>
    <g id="Page-1" stroke="none" stroke-width="1" fill="none" fill-rule="evenodd">
        <g id="no_schedule_ride">
            <g id="Layer_1">
                <g id="Group-4">
                    <g id="Group-3" transform="translate(0.000000, 51.000000)" fill="#4D5052">
                        <g id="Group-36" transform="translate(72.000000, 0.000000)">
                            <path d="M96.7,54 L96.7,107 L145,107 L193.3,107 L193.3,54 L145,0 L96.7,54 Z M122.4,49.2 L139.6,49.2 L139.6,66.3 L122.4,66.3 L122.4,49.2 L122.4,49.2 Z M150.4,49.2 L167.6,49.2 L167.6,66.3 L150.4,66.3 L150.4,49.2 Z M150.4,77 L167.6,77 L167.6,94.1 L150.4,94.1 L150.4,77 Z M122.4,77 L139.6,77 L139.6,94.1 L122.4,94.1 L122.4,77 L122.4,77 Z" id="Combined-Shape"></path>
                            <path d="M0,54 L0,107 L48.3,107 L96.6,107 L96.6,54 L48.3,0 L0,54 Z M25.8,49.2 L43,49.2 L43,66.3 L25.8,66.3 L25.8,49.2 Z M53.7,49.2 L70.9,49.2 L70.9,66.3 L53.7,66.3 L53.7,49.2 Z M53.7,77 L70.9,77 L70.9,94.1 L53.7,94.1 L53.7,77 Z M25.8,77 L43,77 L43,94.1 L25.8,94.1 L25.8,77 Z" id="Combined-Shape-Copy-8"></path>
                            <path d="M193.3,54 L193.3,107 L241.6,107 L290,107 L290,54 L241.7,0 L193.3,54 Z M219.1,49.2 L236.3,49.2 L236.3,66.3 L219.1,66.3 L219.1,49.2 Z M247,49.2 L264.2,49.2 L264.2,66.3 L247,66.3 L247,49.2 Z M247,77 L264.2,77 L264.2,94.1 L247,94.1 L247,77 Z M219.1,77 L236.3,77 L236.3,94.1 L219.1,94.1 L219.1,77 Z" id="Combined-Shape-Copy-7"></path>
                        </g>
                        <path d="M395,75.2 C392.9,77.4 389.7,78.4 386.7,77.5 C382.9,76.4 380.5,72.7 380.9,68.8 C380.9,68.5 381,68.2 381,68 C376.3,68 372.4,64.5 372,59.8 C371.5,55.1 374.6,50.9 379.2,49.9 C378.8,48.7 378.7,47.4 378.9,46.2 C379.3,42.3 381.9,39 385.6,37.8 C389.3,36.6 393.3,37.8 395.9,40.7 C398.1,37.4 402.3,36.1 406,37.5 C409.7,38.9 412,42.6 411.6,46.6 C411.5,47.2 411.4,47.8 411.2,48.3 L411.5,48.3 C416.7,48.8 420.5,53.5 419.9,58.8 C419.5,63 416.4,66.5 412.2,67.3 C412.3,68 412.3,68.7 412.3,69.5 C412,73.2 409.3,76.3 405.7,77.2 C402.7,77.9 399.6,77 397.5,74.8 L397.5,107 L395,107 L395,75.2 Z M395,75.2 C395.5,74.7 395.9,74 396.3,73.3 C396.6,73.8 397,74.3 397.4,74.7 L397.4,71 L402.9,61.9 L402.2,61.9 L396.2,70 L390.2,61.9 L389.5,61.9 L395,71.1 L395,75.2 L395,75.2 Z" id="Combined-Shape_1_"></path>
                        <path d="M29.1,66.9 C26.5,69.3 22.7,70.2 19.1,69.2 C14.2,67.8 11.1,63 11.6,58 C11.6,57.6 11.7,57.3 11.8,56.9 C5.8,56.9 0.7,52.4 0.1,46.4 C-0.5,40.4 3.5,34.9 9.4,33.7 C8.9,32.1 8.8,30.5 9,28.9 C9.5,23.9 12.9,19.7 17.6,18.1 C22.3,16.5 27.6,18.1 30.9,21.9 C33.8,17.7 39.2,16 44,17.7 C48.8,19.5 51.8,24.3 51.2,29.4 C51.1,30.2 51,30.9 50.8,31.6 L51,31.6 C57.7,32.3 62.6,38.3 61.9,45.1 L61.9,45.1 C61.4,50.5 57.4,55 52,56 C52.1,56.9 52.2,57.9 52.1,58.8 C51.6,63.6 48.2,67.5 43.6,68.7 C39.4,69.7 34.9,68.2 32.2,64.8 L32.2,107 L29.1,107 L29.1,66.9 Z M29.1,66.9 C30.1,66 30.9,65 31.5,63.8 C31.7,64.2 32,64.5 32.2,64.8 L32.2,60.8 L39.2,49 L38.3,49 L30.6,59.4 L22.8,49 L22,49 L29.1,60.8 L29.1,66.9 Z" id="Combined-Shape_2_"></path>
                    </g>
                    <g id="Group" transform="translate(174.000000, 122.000000)" fill="#333638">
                        <path d="M26.6,29.5 C20.7,29.5 15.9,34.3 15.9,40.2 C15.9,46.1 20.7,50.9 26.6,50.9 C32.5,50.9 37.3,46.1 37.3,40.2 C37.2,34.3 32.5,29.5 26.6,29.5 Z M26.6,47.5 C22.6,47.5 19.4,44.3 19.4,40.3 C19.4,36.3 22.6,33.1 26.6,33.1 C30.6,33.1 33.8,36.3 33.8,40.3 C33.7,44.2 30.5,47.5 26.6,47.5 Z" id="Shape"></path>
                        <path d="M105,29.5 C99.1,29.5 94.3,34.3 94.3,40.2 C94.3,46.1 99.1,50.9 105,50.9 C110.9,50.9 115.7,46.1 115.7,40.2 C115.6,34.3 110.8,29.5 105,29.5 Z M105,47.5 C101,47.5 97.8,44.3 97.8,40.3 C97.8,36.3 101,33.1 105,33.1 C109,33.1 112.2,36.3 112.2,40.3 C112.1,44.2 108.9,47.5 105,47.5 Z" id="Shape"></path>
                        <path d="M127.8,36.4 L126.5,36.4 C126.1,34.7 125.7,33.2 125.3,31.7 L125.6,31.6 C126.9,31.3 127.7,29.9 127.4,28.6 C127.1,27.3 125.7,26.5 124.4,26.8 L123.8,27 C113.9,-1 95.6,1 93.2,1 L61.5,1 C50.3,1 41.4,13.1 38.1,16.6 L13.1,16.6 C7.8,16.6 3.8,20.6 3.5,25.8 C3.3,25.7 3.1,25.7 2.9,25.7 L2.8,25.7 C1.7,25.7 0.9,26.6 0.9,27.6 L0.9,32 C0.9,33.1 1.8,33.9 2.8,33.9 L2.9,33.9 C3.1,33.9 3.3,33.9 3.5,33.8 L3.5,36.4 L3.2,36.4 C2,36.4 1,37.3 1,38.3 L1,38.5 C1,39.6 2,40.4 3.2,40.4 L12.3,40.4 C12.6,32.3 18.9,25.9 26.6,25.9 C34.3,25.9 40.6,32.3 40.9,40.4 L90.7,40.4 C91,32.3 97.3,25.9 105,25.9 C112.7,25.9 119,32.3 119.3,40.4 L127.7,40.4 C128.9,40.4 129.9,39.5 129.9,38.5 L129.9,38.3 C130,37.3 129,36.4 127.8,36.4 Z M73.7,21.9 C73.7,22.8 73,23.5 72.1,23.5 L66.3,23.5 C65.4,23.5 64.7,22.8 64.7,21.9 L64.7,21.7 C64.7,20.8 65.4,20.1 66.3,20.1 L72.1,20.1 C73,20.1 73.7,20.8 73.7,21.7 L73.7,21.9 Z M73.7,16.6 L42.6,16.6 C50.2,6.2 57.3,3.9 61.2,3.9 C64.1,3.9 68.8,3.9 73.7,4 L73.7,16.6 Z M86.1,21.9 C86.1,22.8 85.4,23.5 84.5,23.5 L78.7,23.5 C77.8,23.5 77.1,22.8 77.1,21.9 L77.1,21.7 C77.1,20.8 77.8,20.1 78.7,20.1 L84.5,20.1 C85.4,20.1 86.1,20.8 86.1,21.7 L86.1,21.9 Z M77.1,16.6 L77.1,4 C85.4,4.1 93.3,4.1 93.3,4.1 C106.2,4.1 113.6,16.6 113.6,16.6 L77.1,16.6 Z" id="Shape"></path>
                    </g>
                    <path d="M165,97.2 C165,83.9 154.2,73 141,73 C127.8,73 117,83.9 117,97.2 C117,108.8 125.3,125.6 137.3,128.5 L137.3,171 C137.3,172.1 138.2,173 139.3,173 L142.7,173 C143.8,173 144.7,172.1 144.7,171 L144.7,128.5 C156.7,125.6 165,108.8 165,97.2 Z M141,80.5 C150.2,80.5 157.6,88 157.6,97.2 C157.6,98.4 157.5,99.6 157.3,100.8 L145.6,100.8 C145.7,100.4 145.8,100 145.8,99.6 C145.8,97.5 144.4,95.7 142.5,95.1 L142.5,84.1 L139.7,84.1 L139.7,95.1 C137.8,95.7 136.4,97.5 136.4,99.6 C136.4,100 136.5,100.4 136.6,100.8 L124.9,100.8 C124.7,99.6 124.6,98.3 124.6,97.2 C124.4,88 131.8,80.5 141,80.5 Z M149.5,89 C149.5,88 148.7,87.2 147.7,87.2 C146.7,87.2 145.9,88 145.9,89 C145.9,90 146.7,90.8 147.7,90.8 C148.7,90.9 149.5,90.1 149.5,89 Z M153.5,95.7 C153.5,94.7 152.7,93.9 151.7,93.9 C150.7,93.9 149.9,94.7 149.9,95.7 C149.9,96.7 150.7,97.5 151.7,97.5 C152.7,97.5 153.5,96.7 153.5,95.7 Z M135.2,89 C135.2,88 134.4,87.2 133.4,87.2 C132.4,87.2 131.6,88 131.6,89 C131.6,90 132.4,90.8 133.4,90.8 C134.4,90.9 135.2,90.1 135.2,89 Z M131.5,95.7 C131.5,94.7 130.7,93.9 129.7,93.9 C128.7,93.9 127.9,94.7 127.9,95.7 C127.9,96.7 128.7,97.5 129.7,97.5 C130.7,97.5 131.5,96.7 131.5,95.7 Z" id="Combined-Shape_4_" fill="#333638"></path>
                    <path d="M320,0 C297.9,0 280,17.9 280,40 C280,62.1 297.9,80 320,80 C342.1,80 360,62.1 360,40 C360,17.9 342.1,0 320,0 Z M320,72 C302.3,72 288,57.7 288,40 C288,22.3 302.3,8 320,8 C337.7,8 352,22.3 352,40 C352,57.7 337.7,72 320,72 Z M322,20 L316,20 L316,44 L337,56.6 L340,51.7 L322,41 L322,20 Z" id="Combined-Shape_5_" fill="#333638"></path>
                </g>
            </g>
        </g>
    </g>
</svg>