<?xml version="1.0" encoding="UTF-8"?>
<svg width="276px" height="199px" viewBox="0 0 276 199" version="1.1" xmlns="http://www.w3.org/2000/svg" xmlns:xlink="http://www.w3.org/1999/xlink">
    <!-- Generator: Sketch 41.2 (35397) - http://www.bohemiancoding.com/sketch -->
    <title>no_user</title>
    <desc>Created with Sketch.</desc>
    <defs></defs>
    <g id="Page-1" stroke="none" stroke-width="1" fill="none" fill-rule="evenodd">
        <g id="no_user" transform="translate(-1.000000, 0.000000)" fill="#333638">
            <g id="Layer_1">
                <path d="M116.2,94.6 C90,85.9 87.9,41.5 87.9,41.5 C87,18.3 68,0 44.8,0 C21.7,0 2.6,18.4 1.8,41.5 C1.8,41.5 -7.5,124.7 37,153.2 C81.5,181.7 63.2,136.2 83.9,140.8 C104.6,145.4 103.3,115.1 126.9,122.2 C150.5,129.3 142.5,103.4 116.2,94.6 Z M9.7,41.2 C9.7,35.6 14.2,31.1 19.8,31.1 C25.4,31.1 29.9,35.6 29.9,41.2 C29.9,46.8 25.4,51.3 19.8,51.3 C14.2,51.3 9.7,46.8 9.7,41.2 Z M62.9,76.9 C62.1,79.8 59.3,80.4 57.1,79.6 C55.9,79.4 54.9,78.6 54.3,77.6 L54.2,77.4 C54.2,77.4 54.1,77.3 54,77.3 C53.9,77.3 53,76.9 52.8,76.9 C51.5,76.7 50.2,76.6 48.9,76.6 C46.1,76.6 43.2,77 40.4,76.7 C36.8,76.3 33.5,75 29.9,75.2 C26.5,75.4 24.2,77.1 22.1,79.6 C19.6,82.8 14.9,79.9 14.8,76.6 C14.5,71.4 17,65.1 21.3,61.8 C24.1,59.6 27.5,59 31,59.2 C34.4,59.4 36.5,61 38.9,63.3 C41.3,65.5 43.4,64.6 45.8,63 C48.2,61.4 51.6,60.8 54.4,61.9 C60.3,64.2 64.7,70.4 62.9,76.9 Z M54.6,53 C49,53 44.5,48.5 44.5,42.9 C44.5,37.3 49,32.8 54.6,32.8 C60.2,32.8 64.7,37.3 64.7,42.9 C64.7,48.5 60.2,53 54.6,53 Z" id="Shape"></path>
                <path d="M161.5,130.2 C187.7,121.4 189.8,77.1 189.8,77.1 C189.6,61.6 197.7,47.1 211.2,39.3 C224.7,31.5 241.2,31.5 254.6,39.3 C268,47.1 276.2,61.6 276,77.1 C276,77.1 285.3,160.3 240.8,188.8 C196.3,217.3 214.6,171.8 193.9,176.4 C173.2,181 174.5,150.7 150.9,157.8 C127.2,164.9 135.3,139 161.5,130.2 Z M223.2,76 C226.9,76 230.5,77.6 233,80.3 C233.7,76.3 232,72.3 228.5,70 C225.1,67.8 220.7,67.8 217.3,70.1 C213.9,72.4 212.3,76.5 213.1,80.5 C215.8,77.7 219.4,76 223.2,76 L223.2,76 Z M257.5,74.5 C261.4,74.5 265.2,76.3 267.7,79.3 C268.7,75.3 267.2,71.1 263.9,68.6 C260.6,66.2 256.1,66 252.6,68.1 C249.1,70.2 247.3,74.4 248,78.4 C250.5,75.9 253.9,74.5 257.5,74.5 Z M251.9,104.6 C257.5,104.6 262,100.1 262,94.5 C262,88.9 257.5,84.4 251.9,84.4 C246.3,84.4 241.8,88.9 241.8,94.5 C241.8,100.1 246.4,104.6 251.9,104.6 Z" id="Combined-Shape_1_"></path>
            </g>
        </g>
    </g>
</svg>